<?xml version="1.0" standalone="no"?>
<!DOCTYPE svg PUBLIC "-//W3C//DTD SVG 20010904//EN"
 "http://www.w3.org/TR/2001/REC-SVG-20010904/DTD/svg10.dtd">
<svg version="1.0" xmlns="http://www.w3.org/2000/svg"
 width="210.000000pt" height="90.000000pt" viewBox="0 0 210.000000 90.000000"
 preserveAspectRatio="xMidYMid meet">
<metadata>
Created by potrace 1.15, written by Peter Selinger 2001-2017
</metadata>
<g transform="translate(0.000000,90.000000) scale(0.100000,-0.100000)"
fill="#000000" stroke="none">
<path d="M20 755 c0 -32 2 -35 30 -35 l30 0 0 -165 0 -165 -30 0 c-27 0 -30
-3 -30 -30 l0 -30 240 0 c198 0 240 2 240 14 0 11 8 10 37 -5 124 -63 246 50
214 197 -24 103 -124 152 -214 104 l-37 -20 0 85 0 85 -240 0 -240 0 0 -35z
m310 -70 c0 -32 2 -35 30 -35 28 0 30 3 30 35 0 31 3 35 25 35 l25 0 0 -165 0
-165 -25 0 c-23 0 -25 4 -25 45 0 43 -1 45 -30 45 -29 0 -30 -2 -30 -45 l0
-45 -90 0 -90 0 0 70 0 70 80 0 80 0 0 35 0 35 -80 0 -80 0 0 60 0 60 90 0 90
0 0 -35z m317 -110 c57 -40 47 -144 -18 -179 -31 -17 -38 -18 -64 -5 -17 8
-38 31 -49 52 -34 70 8 147 79 147 17 0 40 -7 52 -15z"/>
<path d="M1200 714 c-74 -32 -120 -102 -120 -181 0 -31 -7 -59 -20 -78 -26
-40 -26 -85 0 -92 16 -4 20 -14 20 -43 0 -45 35 -80 81 -80 29 0 29 -1 29 -60
0 -51 3 -60 18 -60 21 0 122 66 122 80 0 16 -33 11 -60 -10 -35 -27 -40 -25
-40 18 0 49 -8 58 -53 65 -54 8 -67 22 -67 73 0 37 -3 44 -20 44 -24 0 -25 4
-3 41 17 28 20 29 91 29 59 0 79 -4 99 -20 14 -11 39 -20 54 -20 24 0 29 4 29
26 0 23 -3 25 -36 22 -28 -2 -40 3 -54 20 -16 19 -28 22 -89 22 -41 0 -71 4
-71 10 0 17 136 12 150 -5 7 -8 19 -15 26 -15 8 0 14 -4 14 -10 0 -5 11 -10
25 -10 20 0 25 5 25 26 0 24 -3 26 -31 22 -23 -4 -34 1 -49 19 -15 20 -27 23
-84 23 -37 0 -66 4 -66 10 0 6 30 10 71 10 56 0 76 -4 96 -20 14 -11 39 -20
54 -20 24 0 29 4 29 26 0 23 -3 25 -36 22 -28 -2 -40 3 -54 20 -15 18 -29 22
-72 22 l-53 1 23 19 c39 33 96 45 142 31 50 -15 99 -56 116 -98 21 -48 18
-132 -6 -178 -20 -39 -14 -65 10 -50 36 22 54 176 29 242 -36 97 -169 150
-269 107z"/>
<path d="M960 653 c-8 -3 -25 -15 -37 -26 l-23 -20 0 21 c0 20 -5 22 -60 22
l-60 0 0 -30 c0 -27 3 -30 30 -30 l30 0 0 -100 0 -100 -30 0 c-27 0 -30 -3
-30 -30 l0 -30 95 0 95 0 0 30 c0 27 -3 30 -31 30 l-31 0 4 80 c4 92 15 109
77 117 39 5 41 7 41 39 0 31 -3 34 -27 33 -16 0 -35 -3 -43 -6z"/>
<path d="M1857 641 c-29 -15 -37 -16 -37 -5 0 10 -15 14 -60 14 l-60 0 0 -30
c0 -25 4 -30 25 -30 l25 0 0 -100 0 -100 -25 0 c-18 0 -25 -5 -25 -19 0 -21
40 -31 123 -31 44 0 47 2 47 25 0 20 -5 25 -25 25 -25 0 -25 1 -25 83 0 81 1
83 29 100 36 21 77 22 85 1 3 -9 6 -65 6 -125 l0 -109 29 0 c16 0 43 -3 60 -6
29 -6 31 -5 31 25 0 26 -4 31 -25 31 -25 0 -25 1 -25 88 0 110 -12 155 -46
170 -35 17 -64 15 -107 -7z"/>
<path d="M1520 620 c0 -25 4 -30 25 -30 l25 0 0 -100 0 -100 -25 0 c-20 0 -25
-5 -25 -25 0 -33 17 -39 95 -30 60 6 65 8 65 31 0 17 -6 24 -20 24 -19 0 -20
7 -20 130 l0 130 -60 0 -60 0 0 -30z"/>
</g>
</svg>
